<?xml version="1.0" encoding="utf-8"?>
<svg width="128px" height="128px" viewbox="0 0 128 128" version="1.1" xmlns:xlink="http://www.w3.org/1999/xlink" xmlns="http://www.w3.org/2000/svg">
  <g id="New-group">
    <path d="M0 0L128 0L128 128L0 128L0 0Z" id="Rectangle" fill="#D3D3D3" fill-rule="evenodd" stroke="none" />
    <g id="SA" transform="translate(16 16)">
      <path d="M38.8922 61.4414Q39.6891 59.2852 39.6891 56.7305Q39.6891 54.5742 39.0004 52.5586Q38.3117 50.543 37.2029 48.668Q36.094 46.793 34.7635 45.0469Q33.4331 43.3008 32.1257 41.707Q34.2911 40.1602 35.5252 37.8867Q36.7594 35.6133 36.7594 32.7773Q36.7594 30.4805 35.3883 28.9219Q34.0172 27.3633 31.3453 27.3633Q29.8453 27.3633 28.6969 27.8906Q27.5484 28.418 26.7516 29.3086Q25.9547 30.1992 25.5445 31.3477Q25.1344 32.4961 25.1344 33.7852Q25.1344 35.8945 25.9781 37.8633Q26.8219 39.832 28.3219 42.0352Q27.1969 42.4457 26.025 42.6389Q24.8531 42.832 23.5641 42.832Q21.6891 42.832 19.8844 42.3261Q18.0797 41.8202 16.6383 40.8316Q15.1969 39.843 14.3414 38.3251Q13.4859 36.8071 13.4859 34.7831Q13.4859 33.0886 14.2242 32.3002Q14.9625 31.5117 16.0641 31.5117Q17.025 31.5117 17.5289 32.0658Q18.0328 32.6199 18.0328 33.5867Q18.0328 34.6476 17.3648 35.0367Q16.6969 35.4258 16.0172 35.4258L16.0172 36.8555Q17.5641 36.8555 18.5719 36.0469Q19.5797 35.2383 19.5797 33.5508Q19.5797 31.957 18.6422 31.0195Q17.7047 30.082 16.1578 30.082Q14.1891 30.082 13.0641 31.4063Q11.9391 32.7305 11.9391 34.8867Q11.9391 37.3477 12.9703 39.1172Q14.0016 40.8867 15.6656 42.0469Q17.3297 43.207 19.4156 43.7344Q21.5016 44.2617 23.6109 44.2617Q26.6344 44.2617 29.1656 43.2539Q30.3844 44.9648 31.65 46.7227Q32.9156 48.4805 33.9469 50.2969Q34.9781 52.1133 35.6578 53.9883Q36.3375 55.8633 36.3375 57.832Q36.3375 59.707 35.8109 61.4063Q35.2843 63.1055 34.1725 64.4063Q33.0606 65.707 31.4107 66.457Q29.7607 67.207 27.5605 67.207Q26.3667 67.207 24.9273 66.7734Q23.4879 66.3398 22.2124 65.332Q20.9369 64.3242 20.0708 62.6602Q19.2047 60.9961 19.2047 58.5586Q19.2047 56.4961 19.8117 55.0547Q20.4187 53.6133 21.3761 52.6992Q22.3336 51.7852 23.5476 51.375Q24.7616 50.9648 26.0459 50.9648Q28.4508 50.9648 30.0035 52.3359Q31.5562 53.707 31.5563 56.0977Q31.5562 58.418 30.4584 59.4492Q29.3605 60.4805 27.959 60.4805Q26.9544 60.4805 26.3121 60.0938Q25.6698 59.707 25.2843 59.0625Q24.8989 58.418 24.7588 57.5742Q24.6188 56.7305 24.6188 55.8164L23.0719 55.8164Q23.0719 58.418 24.15 60.1641Q25.2281 61.9102 27.9703 61.9102Q29.3297 61.9102 30.3141 61.3594Q31.2984 60.8086 31.9195 59.9648Q32.5406 59.1211 32.8219 58.0898Q33.1031 57.0586 33.1031 56.0977Q33.1031 54.7617 32.6227 53.5664Q32.1422 52.3711 31.2633 51.457Q30.3844 50.543 29.0602 50.0391Q27.7359 49.5352 26.0484 49.5352Q24.7125 49.5352 23.2477 50.0156Q21.7828 50.4961 20.5406 51.5742Q19.2984 52.6523 18.4781 54.375Q17.6578 56.0977 17.6578 58.5586Q17.6578 60.8086 18.3727 62.6602Q19.0875 64.5117 20.3883 65.8242Q21.6891 67.1367 23.4938 67.8867Q25.2984 68.6367 27.5016 68.6367Q30.4781 68.6367 32.7516 67.7227Q35.025 66.8086 36.5602 65.2031Q38.0953 63.5977 38.8922 61.4414ZM83.0625 29.7539L83.0625 28.3242L78.1542 28.3242Q73.6923 28.3242 70.1224 28.9922Q66.5526 29.6602 63.7346 31.9102Q61.9966 33.3164 60.8694 35.2031Q59.7422 37.0898 59.7422 39.5039Q59.7422 41.6602 60.8203 42.9609Q61.8984 44.2617 63.9141 44.2617Q65.4375 44.2617 66.4688 43.2773Q67.5 42.293 67.5 40.7461Q67.5 39.1523 66.4922 38.3203Q65.4844 37.4883 63.9609 37.4883L63.9609 38.918Q64.6326 38.918 65.2928 39.3071Q65.9531 39.6962 65.9531 40.7571Q65.9531 41.6766 65.3846 42.2543Q64.816 42.832 63.8646 42.832Q62.7279 42.832 62.0085 41.9632Q61.2891 41.0944 61.2891 39.4746Q61.2891 37.3612 62.1788 35.7411Q63.0685 34.121 64.4495 32.9707Q66.4629 31.3037 69.1318 30.5288Q71.8008 29.7539 74.2357 29.7539L74.2357 30.2461Q73.2711 30.7148 72.6713 31.3828Q72.0714 32.0508 71.7891 32.543Q70.8281 34.1133 70.125 36.668Q69.4219 39.2227 68.8477 42.2227Q68.2734 45.2227 67.6992 48.4336Q67.125 51.6445 66.3984 54.5273Q65.6953 57.3164 64.7344 59.6367Q63.7734 61.957 62.332 63.6445Q60.8906 65.332 58.875 66.2695Q56.8594 67.207 54.1172 67.207Q52.9219 67.207 51.4805 66.7734Q50.0391 66.3398 48.7617 65.332Q47.4844 64.3242 46.6523 62.6602Q45.8203 60.9961 45.8203 58.5586Q45.8203 56.4961 46.418 55.0547Q47.0156 53.6133 47.9766 52.6992Q48.9375 51.7852 50.1563 51.375Q51.375 50.9648 52.6875 50.9648Q55.0781 50.9648 56.6367 52.3359Q58.1953 53.707 58.1953 56.0977Q58.1953 58.418 57.0974 59.4492Q55.9995 60.4805 54.6215 60.4805Q53.6169 60.4805 52.9629 60.0938Q52.3088 59.707 51.9234 59.0625Q51.538 58.418 51.3979 57.5742Q51.2578 56.7305 51.2578 55.8164L49.7109 55.8164Q49.7109 58.418 50.7891 60.1641Q51.8672 61.9102 54.6094 61.9102Q55.9453 61.9102 56.9297 61.3594Q57.9141 60.8086 58.5352 59.9648Q59.1563 59.1211 59.4492 58.0898Q59.7422 57.0586 59.7422 56.0977Q59.7422 54.7617 59.2617 53.5664Q58.7813 52.3711 57.8906 51.457Q57 50.543 55.6758 50.0391Q54.3516 49.5352 52.6875 49.5352Q51.3281 49.5352 49.8633 50.0156Q48.3984 50.4961 47.1563 51.5742Q45.9141 52.6523 45.0938 54.375Q44.2734 56.0977 44.2734 58.5586Q44.2734 60.8086 44.9766 62.6602Q45.6797 64.5117 46.9453 65.8242Q48.2109 67.1367 50.0156 67.8867Q51.8203 68.6367 54.0234 68.6367Q57.0938 68.6367 59.3789 67.6289Q61.6641 66.6211 63.293 64.793Q64.9219 62.9648 66.0234 60.3984Q67.125 57.832 67.9453 54.668Q68.3203 53.2383 68.6367 51.668Q68.9531 50.0977 69.2344 48.4805L74.0859 48.4805Q74.2266 51.1523 74.2266 53.6602Q74.2266 55.1367 74.1797 56.625Q74.1328 58.1133 73.875 59.4844Q73.6172 60.8555 73.0547 62.0625Q72.4922 63.2695 71.4844 64.2773Q70.5234 65.2383 68.9414 65.7422Q67.3594 66.2461 65.6484 66.2461L65.6484 67.6758L77.1409 67.6758Q78.8331 67.6758 79.9142 67.1719Q80.9952 66.668 81.618 65.7539Q82.2407 64.8398 82.4875 63.6211Q82.7344 62.4023 82.7344 60.9492L82.7344 59.4258L81.1875 59.4258L81.1875 60.9492Q81.1875 61.8164 81.0698 62.7305Q80.952 63.6445 80.54 64.4414Q80.1281 65.2383 79.3865 65.7422Q78.6449 66.2461 77.3265 66.2461L70.7813 66.2461L70.7813 65.7539Q72.7643 65.2383 74.0629 63.8672Q75.3615 62.4961 76.0931 61.043Q76.5183 60.1992 76.8133 59.0625Q77.1083 57.9258 77.2729 56.707Q77.4375 55.4883 77.4844 54.2344Q77.5313 52.9805 77.5313 51.832Q77.5313 49.957 77.4844 48.4219Q77.4375 46.8867 77.3906 45.4688Q77.3438 44.0508 77.2969 42.7383Q77.25 41.4258 77.25 39.9727Q77.25 36.4805 77.6094 34.582Q77.9689 32.6836 79.0126 31.4414Q79.4363 30.9492 79.9662 30.6211Q80.4961 30.293 81.0848 30.0938Q81.6735 29.8945 82.1796 29.8242Q82.6857 29.7539 83.0625 29.7539ZM35.0263 31.4414Q35.2125 32.2148 35.2125 33.0117Q35.2125 35.4258 34.1668 37.3477Q33.1211 39.2695 31.2618 40.6055Q29.8845 38.6836 28.9508 36.8789Q28.0172 35.0742 28.0172 33.2695Q28.0172 31.043 29.0651 29.918Q30.113 28.793 31.6496 28.793Q32.6043 28.793 33.2914 29.1563Q33.9784 29.5195 34.4092 30.0938Q34.8401 30.668 35.0263 31.4414ZM72.0938 35.3513Q72.6563 33.7907 73.3594 32.7345Q74.3719 31.2561 75.8203 30.5519Q77.2687 29.8477 79.2938 29.7539Q78.4266 30.1293 77.5477 30.7161Q76.6688 31.303 75.9423 32.3591Q75.3479 33.2274 74.9555 34.2365Q74.5631 35.2456 74.3491 36.4896Q74.135 37.7336 74.0636 39.3177Q73.9922 40.9017 73.9922 42.9672L73.9922 45.0793Q73.9922 46.0884 74.0391 47.0508L69.4688 47.0508Q69.8672 44.8916 70.2539 42.7793Q70.6406 40.667 71.0859 38.7894Q71.5313 36.9119 72.0938 35.3513Z" />
    </g>
  </g>
</svg>